<mxfile host="app.diagrams.net" modified="2023-05-10T15:08:49.673Z" agent="Mozilla/5.0 (Windows NT 10.0; Win64; x64) AppleWebKit/537.36 (KHTML, like Gecko) Chrome/113.0.0.0 Safari/537.36" etag="vH1JqEm73S_fx1gBCY7i" version="21.2.9" type="device">
  <diagram name="Page-1" id="ap-KhpIDOD2g6_Kz5WHh">
    <mxGraphModel dx="1050" dy="636" grid="1" gridSize="10" guides="1" tooltips="1" connect="1" arrows="1" fold="1" page="1" pageScale="1" pageWidth="827" pageHeight="1169" math="0" shadow="0">
      <root>
        <mxCell id="0" />
        <mxCell id="1" parent="0" />
        <mxCell id="v6-e0fSExj-rIAnDFAJg-4" value="Mercury" style="swimlane;html=1;childLayout=stackLayout;resizeParent=1;resizeParentMax=0;horizontal=1;startSize=20;horizontalStack=0;whiteSpace=wrap;align=center;fillColor=#e1d5e7;strokeColor=#9673a6;" parent="1" vertex="1">
          <mxGeometry x="80" y="60" width="630" height="1270" as="geometry">
            <mxRectangle x="80" y="60" width="90" height="30" as="alternateBounds" />
          </mxGeometry>
        </mxCell>
        <mxCell id="v6-e0fSExj-rIAnDFAJg-5" value="Dev User" style="swimlane;html=1;startSize=20;horizontal=0;fillColor=#dae8fc;strokeColor=#6c8ebf;" parent="v6-e0fSExj-rIAnDFAJg-4" vertex="1">
          <mxGeometry y="20" width="630" height="160" as="geometry">
            <mxRectangle y="20" width="630" height="30" as="alternateBounds" />
          </mxGeometry>
        </mxCell>
        <mxCell id="v6-e0fSExj-rIAnDFAJg-9" value="&lt;b&gt;DEV&lt;/b&gt;" style="image;aspect=fixed;perimeter=ellipsePerimeter;html=1;align=center;shadow=0;dashed=0;spacingTop=3;image=img/lib/active_directory/users.svg;" parent="v6-e0fSExj-rIAnDFAJg-5" vertex="1">
          <mxGeometry x="47" y="58" width="33" height="50" as="geometry" />
        </mxCell>
        <mxCell id="v6-e0fSExj-rIAnDFAJg-6" value="Repository" style="swimlane;html=1;startSize=20;horizontal=0;fillColor=#d5e8d4;strokeColor=#82b366;" parent="v6-e0fSExj-rIAnDFAJg-4" vertex="1">
          <mxGeometry y="180" width="630" height="180" as="geometry">
            <mxRectangle y="50" width="630" height="30" as="alternateBounds" />
          </mxGeometry>
        </mxCell>
        <mxCell id="wIPNfqUvwqh_V6nw-kE2-1" value="" style="rounded=0;whiteSpace=wrap;html=1;fillColor=#d5e8d4;strokeColor=#82b366;" parent="v6-e0fSExj-rIAnDFAJg-6" vertex="1">
          <mxGeometry x="185" y="30" width="240" height="130" as="geometry" />
        </mxCell>
        <mxCell id="wIPNfqUvwqh_V6nw-kE2-6" value="&lt;b&gt;API&lt;/b&gt;" style="sketch=0;html=1;dashed=0;whitespace=wrap;fillColor=#2875E2;strokeColor=#ffffff;points=[[0.005,0.63,0],[0.1,0.2,0],[0.9,0.2,0],[0.5,0,0],[0.995,0.63,0],[0.72,0.99,0],[0.5,1,0],[0.28,0.99,0]];verticalLabelPosition=bottom;align=center;verticalAlign=top;shape=mxgraph.kubernetes.icon;prIcon=api" parent="v6-e0fSExj-rIAnDFAJg-6" vertex="1">
          <mxGeometry x="350" y="40" width="50" height="48" as="geometry" />
        </mxCell>
        <mxCell id="wIPNfqUvwqh_V6nw-kE2-7" value="&lt;b&gt;Client App&lt;/b&gt;" style="shape=image;html=1;verticalAlign=top;verticalLabelPosition=bottom;labelBackgroundColor=#ffffff;imageAspect=0;aspect=fixed;image=https://cdn0.iconfinder.com/data/icons/long-shadow-web-icons/512/angular-symbol-128.png" parent="v6-e0fSExj-rIAnDFAJg-6" vertex="1">
          <mxGeometry x="270" y="40" width="36" height="36" as="geometry" />
        </mxCell>
        <mxCell id="wIPNfqUvwqh_V6nw-kE2-10" value="" style="shape=image;verticalLabelPosition=bottom;labelBackgroundColor=default;verticalAlign=top;aspect=fixed;imageAspect=0;image=https://infinapps.com/wp-content/uploads/2018/10/mongodb-logo.png;" parent="v6-e0fSExj-rIAnDFAJg-6" vertex="1">
          <mxGeometry x="307.05" y="100" width="51.2" height="60" as="geometry" />
        </mxCell>
        <mxCell id="wIPNfqUvwqh_V6nw-kE2-11" value="&lt;b&gt;Repository&lt;/b&gt;" style="text;html=1;strokeColor=none;fillColor=none;align=center;verticalAlign=middle;whiteSpace=wrap;rounded=0;" parent="v6-e0fSExj-rIAnDFAJg-6" vertex="1">
          <mxGeometry x="158.5" y="70" width="60" height="30" as="geometry" />
        </mxCell>
        <mxCell id="wIPNfqUvwqh_V6nw-kE2-2" value="" style="image;html=1;image=img/lib/atlassian/Bitbucket_Logo.svg;" parent="v6-e0fSExj-rIAnDFAJg-6" vertex="1">
          <mxGeometry x="160" y="20" width="57" height="50" as="geometry" />
        </mxCell>
        <mxCell id="6VWXFK1JRMtgRxqmZabQ-28" style="edgeStyle=orthogonalEdgeStyle;rounded=0;orthogonalLoop=1;jettySize=auto;html=1;" parent="v6-e0fSExj-rIAnDFAJg-6" source="6VWXFK1JRMtgRxqmZabQ-25" edge="1">
          <mxGeometry relative="1" as="geometry">
            <mxPoint x="60" y="-100" as="targetPoint" />
            <Array as="points">
              <mxPoint x="525" y="-120" />
              <mxPoint x="61" y="-120" />
            </Array>
          </mxGeometry>
        </mxCell>
        <mxCell id="6VWXFK1JRMtgRxqmZabQ-25" value="" style="shape=image;verticalLabelPosition=bottom;labelBackgroundColor=default;verticalAlign=top;aspect=fixed;imageAspect=0;image=https://freepngimg.com/thumb/categories/1692.png;" parent="v6-e0fSExj-rIAnDFAJg-6" vertex="1">
          <mxGeometry x="490" y="70" width="70" height="70" as="geometry" />
        </mxCell>
        <mxCell id="v6-e0fSExj-rIAnDFAJg-7" value="Jenkis Pipeline" style="swimlane;html=1;startSize=20;horizontal=0;fillColor=#fff2cc;strokeColor=#d6b656;" parent="v6-e0fSExj-rIAnDFAJg-4" vertex="1">
          <mxGeometry y="360" width="630" height="410" as="geometry">
            <mxRectangle y="260" width="480" height="30" as="alternateBounds" />
          </mxGeometry>
        </mxCell>
        <mxCell id="v6-e0fSExj-rIAnDFAJg-102" value="" style="rounded=1;whiteSpace=wrap;html=1;dashed=1;fillColor=#fff2cc;strokeColor=#d6b656;glass=0;shadow=0;gradientColor=none;gradientDirection=south;" parent="v6-e0fSExj-rIAnDFAJg-7" vertex="1">
          <mxGeometry x="30" y="20" width="570" height="360" as="geometry" />
        </mxCell>
        <mxCell id="v6-e0fSExj-rIAnDFAJg-44" value="" style="rounded=1;whiteSpace=wrap;html=1;fillColor=#f5f5f5;fontColor=#333333;strokeColor=#666666;" parent="v6-e0fSExj-rIAnDFAJg-7" vertex="1">
          <mxGeometry x="50" y="180" width="390" height="180" as="geometry" />
        </mxCell>
        <mxCell id="v6-e0fSExj-rIAnDFAJg-46" value="" style="rounded=1;whiteSpace=wrap;html=1;fillColor=#dae8fc;strokeColor=#6c8ebf;" parent="v6-e0fSExj-rIAnDFAJg-7" vertex="1">
          <mxGeometry x="70" y="150" width="410" height="180" as="geometry" />
        </mxCell>
        <mxCell id="v6-e0fSExj-rIAnDFAJg-48" value="MongoDB" style="text;html=1;strokeColor=none;fillColor=none;align=center;verticalAlign=middle;whiteSpace=wrap;rounded=0;" parent="v6-e0fSExj-rIAnDFAJg-7" vertex="1">
          <mxGeometry x="190" y="330" width="60" height="30" as="geometry" />
        </mxCell>
        <mxCell id="v6-e0fSExj-rIAnDFAJg-50" value="" style="rounded=1;whiteSpace=wrap;html=1;fillColor=#d5e8d4;strokeColor=#82b366;" parent="v6-e0fSExj-rIAnDFAJg-7" vertex="1">
          <mxGeometry x="100" y="120" width="430" height="180" as="geometry" />
        </mxCell>
        <mxCell id="v6-e0fSExj-rIAnDFAJg-51" value="Pod1" style="text;html=1;strokeColor=none;fillColor=none;align=center;verticalAlign=middle;whiteSpace=wrap;rounded=0;flipV=1;flipH=1;direction=south;rotation=90;" parent="v6-e0fSExj-rIAnDFAJg-7" vertex="1">
          <mxGeometry x="50" y="300" width="30" height="60" as="geometry" />
        </mxCell>
        <mxCell id="v6-e0fSExj-rIAnDFAJg-54" value="Pod2" style="text;html=1;strokeColor=none;fillColor=none;align=center;verticalAlign=middle;whiteSpace=wrap;rounded=0;flipV=1;flipH=1;direction=south;rotation=90;" parent="v6-e0fSExj-rIAnDFAJg-7" vertex="1">
          <mxGeometry x="70" y="250" width="30" height="60" as="geometry" />
        </mxCell>
        <mxCell id="v6-e0fSExj-rIAnDFAJg-55" value="Mong Express" style="text;html=1;strokeColor=none;fillColor=none;align=center;verticalAlign=middle;whiteSpace=wrap;rounded=0;" parent="v6-e0fSExj-rIAnDFAJg-7" vertex="1">
          <mxGeometry x="190" y="300" width="80" height="30" as="geometry" />
        </mxCell>
        <mxCell id="v6-e0fSExj-rIAnDFAJg-56" value="Web API" style="text;html=1;strokeColor=none;fillColor=none;align=center;verticalAlign=middle;whiteSpace=wrap;rounded=0;" parent="v6-e0fSExj-rIAnDFAJg-7" vertex="1">
          <mxGeometry x="214" y="265" width="80" height="30" as="geometry" />
        </mxCell>
        <mxCell id="v6-e0fSExj-rIAnDFAJg-57" value="Pod3" style="text;html=1;strokeColor=none;fillColor=none;align=center;verticalAlign=middle;whiteSpace=wrap;rounded=0;flipV=1;flipH=1;direction=south;rotation=90;" parent="v6-e0fSExj-rIAnDFAJg-7" vertex="1">
          <mxGeometry x="100" y="220" width="30" height="60" as="geometry" />
        </mxCell>
        <mxCell id="v6-e0fSExj-rIAnDFAJg-45" value="" style="rounded=1;fillColor=#e1d5e7;strokeColor=#9673a6;gradientColor=none;labelBackgroundColor=none;html=1;whiteSpace=wrap;" parent="v6-e0fSExj-rIAnDFAJg-7" vertex="1">
          <mxGeometry x="130" y="80" width="450" height="190" as="geometry" />
        </mxCell>
        <mxCell id="wIPNfqUvwqh_V6nw-kE2-27" value="" style="rounded=1;whiteSpace=wrap;html=1;fillColor=#dae8fc;strokeColor=#6c8ebf;direction=south;" parent="v6-e0fSExj-rIAnDFAJg-7" vertex="1">
          <mxGeometry x="160" y="110" width="410" height="126" as="geometry" />
        </mxCell>
        <mxCell id="wIPNfqUvwqh_V6nw-kE2-28" value="" style="html=1;shadow=0;dashed=0;align=center;verticalAlign=middle;shape=mxgraph.arrows2.arrow;dy=0;dx=30;notch=30;direction=east;fillColor=#bac8d3;strokeColor=#23445d;" parent="v6-e0fSExj-rIAnDFAJg-7" vertex="1">
          <mxGeometry x="170" y="118.5" width="70" height="113" as="geometry" />
        </mxCell>
        <mxCell id="wIPNfqUvwqh_V6nw-kE2-32" value="&lt;b&gt;Git Diff&lt;/b&gt;" style="text;html=1;strokeColor=none;fillColor=none;align=center;verticalAlign=middle;whiteSpace=wrap;rounded=0;direction=north;" parent="v6-e0fSExj-rIAnDFAJg-7" vertex="1">
          <mxGeometry x="205" y="146.5" width="30" height="60" as="geometry" />
        </mxCell>
        <mxCell id="v6-e0fSExj-rIAnDFAJg-23" value="" style="html=1;shadow=0;dashed=0;align=center;verticalAlign=middle;shape=mxgraph.arrows2.arrow;dy=0;dx=30;notch=30;direction=east;fillColor=#bac8d3;strokeColor=#23445d;" parent="v6-e0fSExj-rIAnDFAJg-7" vertex="1">
          <mxGeometry x="235" y="116.5" width="70" height="113" as="geometry" />
        </mxCell>
        <mxCell id="v6-e0fSExj-rIAnDFAJg-24" value="&lt;div style=&quot;&quot;&gt;&lt;br&gt;&lt;/div&gt;" style="html=1;shadow=0;dashed=0;align=left;verticalAlign=middle;shape=mxgraph.arrows2.arrow;dy=0;dx=30;notch=30;direction=east;fillColor=#bac8d3;strokeColor=#23445d;" parent="v6-e0fSExj-rIAnDFAJg-7" vertex="1">
          <mxGeometry x="294" y="116.5" width="70" height="113" as="geometry" />
        </mxCell>
        <mxCell id="v6-e0fSExj-rIAnDFAJg-25" value="" style="html=1;shadow=0;dashed=0;align=center;verticalAlign=middle;shape=mxgraph.arrows2.arrow;dy=0;dx=30;notch=30;direction=east;fillColor=#bac8d3;strokeColor=#23445d;" parent="v6-e0fSExj-rIAnDFAJg-7" vertex="1">
          <mxGeometry x="360" y="116.5" width="70" height="113" as="geometry" />
        </mxCell>
        <mxCell id="v6-e0fSExj-rIAnDFAJg-39" value="&lt;b&gt;Sonar Scan&lt;/b&gt;" style="text;html=1;strokeColor=none;fillColor=none;align=center;verticalAlign=middle;whiteSpace=wrap;rounded=0;direction=north;" parent="v6-e0fSExj-rIAnDFAJg-7" vertex="1">
          <mxGeometry x="264" y="145" width="30" height="60" as="geometry" />
        </mxCell>
        <mxCell id="v6-e0fSExj-rIAnDFAJg-40" value="&lt;b&gt;Venafi&amp;nbsp;&lt;br&gt;Code&lt;br&gt;Sign&lt;br&gt;&lt;/b&gt;" style="text;html=1;strokeColor=none;fillColor=none;align=center;verticalAlign=middle;whiteSpace=wrap;rounded=0;direction=north;" parent="v6-e0fSExj-rIAnDFAJg-7" vertex="1">
          <mxGeometry x="320" y="146.5" width="30" height="60" as="geometry" />
        </mxCell>
        <mxCell id="v6-e0fSExj-rIAnDFAJg-42" value="&lt;b&gt;Build&amp;nbsp;&lt;br&gt;Docker&lt;br&gt;Container&lt;/b&gt;" style="text;html=1;strokeColor=none;fillColor=none;align=center;verticalAlign=middle;whiteSpace=wrap;rounded=0;direction=north;" parent="v6-e0fSExj-rIAnDFAJg-7" vertex="1">
          <mxGeometry x="390" y="146.5" width="30" height="60" as="geometry" />
        </mxCell>
        <mxCell id="v6-e0fSExj-rIAnDFAJg-59" value="Pod4" style="text;html=1;strokeColor=none;fillColor=none;align=center;verticalAlign=middle;whiteSpace=wrap;rounded=0;flipV=1;flipH=1;direction=south;rotation=90;" parent="v6-e0fSExj-rIAnDFAJg-7" vertex="1">
          <mxGeometry x="130" y="155" width="30" height="60" as="geometry" />
        </mxCell>
        <mxCell id="v6-e0fSExj-rIAnDFAJg-61" value="Client App" style="text;html=1;strokeColor=none;fillColor=none;align=center;verticalAlign=middle;whiteSpace=wrap;rounded=0;" parent="v6-e0fSExj-rIAnDFAJg-7" vertex="1">
          <mxGeometry x="235" y="235" width="80" height="30" as="geometry" />
        </mxCell>
        <mxCell id="v6-e0fSExj-rIAnDFAJg-62" value="" style="html=1;shadow=0;dashed=0;align=center;verticalAlign=middle;shape=mxgraph.arrows2.arrow;dy=0;dx=30;notch=30;direction=east;fillColor=#bac8d3;strokeColor=#23445d;" parent="v6-e0fSExj-rIAnDFAJg-7" vertex="1">
          <mxGeometry x="430" y="116.5" width="70" height="113" as="geometry" />
        </mxCell>
        <mxCell id="v6-e0fSExj-rIAnDFAJg-63" value="" style="html=1;shadow=0;dashed=0;align=center;verticalAlign=middle;shape=mxgraph.arrows2.arrow;dy=0;dx=30;notch=30;direction=east;fillColor=#bac8d3;strokeColor=#23445d;" parent="v6-e0fSExj-rIAnDFAJg-7" vertex="1">
          <mxGeometry x="500" y="116.5" width="70" height="113" as="geometry" />
        </mxCell>
        <mxCell id="v6-e0fSExj-rIAnDFAJg-98" value="&lt;b&gt;Test&lt;/b&gt;" style="text;html=1;strokeColor=none;fillColor=none;align=center;verticalAlign=middle;whiteSpace=wrap;rounded=0;direction=north;" parent="v6-e0fSExj-rIAnDFAJg-7" vertex="1">
          <mxGeometry x="460" y="145" width="30" height="60" as="geometry" />
        </mxCell>
        <mxCell id="v6-e0fSExj-rIAnDFAJg-99" value="&lt;b&gt;Xray&lt;br&gt;Scan&lt;br&gt;&lt;/b&gt;" style="text;html=1;strokeColor=none;fillColor=none;align=center;verticalAlign=middle;whiteSpace=wrap;rounded=0;direction=north;" parent="v6-e0fSExj-rIAnDFAJg-7" vertex="1">
          <mxGeometry x="530" y="145" width="30" height="60" as="geometry" />
        </mxCell>
        <mxCell id="v6-e0fSExj-rIAnDFAJg-105" value="&lt;b&gt;Mercury Simulation&lt;/b&gt;" style="text;html=1;strokeColor=none;fillColor=none;align=center;verticalAlign=middle;whiteSpace=wrap;rounded=0;" parent="v6-e0fSExj-rIAnDFAJg-7" vertex="1">
          <mxGeometry x="420" y="30" width="130" height="30" as="geometry" />
        </mxCell>
        <mxCell id="6VWXFK1JRMtgRxqmZabQ-36" value="" style="strokeWidth=1;html=1;shape=mxgraph.flowchart.annotation_2;align=left;labelPosition=right;pointerEvents=1;direction=north;" parent="v6-e0fSExj-rIAnDFAJg-7" vertex="1">
          <mxGeometry x="440" y="229.5" width="100" height="50" as="geometry" />
        </mxCell>
        <mxCell id="6VWXFK1JRMtgRxqmZabQ-38" value="" style="strokeWidth=1;html=1;shape=mxgraph.flowchart.annotation_2;align=left;labelPosition=right;pointerEvents=1;direction=south;" parent="v6-e0fSExj-rIAnDFAJg-7" vertex="1">
          <mxGeometry x="435" y="66.5" width="100" height="50" as="geometry" />
        </mxCell>
        <mxCell id="v6-e0fSExj-rIAnDFAJg-15" style="edgeStyle=orthogonalEdgeStyle;rounded=0;orthogonalLoop=1;jettySize=auto;html=1;" parent="v6-e0fSExj-rIAnDFAJg-4" source="v6-e0fSExj-rIAnDFAJg-9" target="wIPNfqUvwqh_V6nw-kE2-2" edge="1">
          <mxGeometry relative="1" as="geometry" />
        </mxCell>
        <mxCell id="v6-e0fSExj-rIAnDFAJg-32" value="" style="edgeStyle=orthogonalEdgeStyle;rounded=0;orthogonalLoop=1;jettySize=auto;html=1;entryX=0.01;entryY=0.797;entryDx=0;entryDy=0;entryPerimeter=0;" parent="v6-e0fSExj-rIAnDFAJg-4" source="wIPNfqUvwqh_V6nw-kE2-1" target="wIPNfqUvwqh_V6nw-kE2-27" edge="1">
          <mxGeometry relative="1" as="geometry" />
        </mxCell>
        <mxCell id="v6-e0fSExj-rIAnDFAJg-91" value="Publish to Artifactory" style="swimlane;html=1;startSize=20;horizontal=0;fillColor=#d5e8d4;strokeColor=#82b366;" parent="v6-e0fSExj-rIAnDFAJg-4" vertex="1">
          <mxGeometry y="770" width="630" height="250" as="geometry">
            <mxRectangle y="770" width="630" height="30" as="alternateBounds" />
          </mxGeometry>
        </mxCell>
        <mxCell id="6VWXFK1JRMtgRxqmZabQ-5" value="" style="rounded=1;whiteSpace=wrap;html=1;dashed=1;fillColor=#d5e8d4;strokeColor=#82b366;" parent="v6-e0fSExj-rIAnDFAJg-91" vertex="1">
          <mxGeometry x="60" y="50" width="300" height="170" as="geometry" />
        </mxCell>
        <mxCell id="6VWXFK1JRMtgRxqmZabQ-4" value="&lt;b&gt;&lt;u&gt;Build Docker Images and Push in Artifactory&lt;/u&gt;&lt;/b&gt;" style="text;html=1;align=center;verticalAlign=middle;resizable=0;points=[];autosize=1;strokeColor=none;fillColor=none;" parent="v6-e0fSExj-rIAnDFAJg-91" vertex="1">
          <mxGeometry x="70" y="50" width="280" height="30" as="geometry" />
        </mxCell>
        <mxCell id="6VWXFK1JRMtgRxqmZabQ-1" value="" style="image;sketch=0;aspect=fixed;html=1;points=[];align=center;fontSize=12;image=img/lib/mscae/Docker.svg;" parent="v6-e0fSExj-rIAnDFAJg-91" vertex="1">
          <mxGeometry x="80" y="100" width="50" height="41" as="geometry" />
        </mxCell>
        <mxCell id="6VWXFK1JRMtgRxqmZabQ-8" value="" style="shape=image;verticalLabelPosition=bottom;labelBackgroundColor=default;verticalAlign=top;aspect=fixed;imageAspect=0;image=https://connect.redhat.com/s3api/prod-s3api/Artifactory_HEX1.png;" parent="v6-e0fSExj-rIAnDFAJg-91" vertex="1">
          <mxGeometry x="239" y="100" width="90" height="55.95" as="geometry" />
        </mxCell>
        <mxCell id="6VWXFK1JRMtgRxqmZabQ-12" value="" style="endArrow=classic;html=1;rounded=0;" parent="v6-e0fSExj-rIAnDFAJg-91" edge="1">
          <mxGeometry relative="1" as="geometry">
            <mxPoint x="139" y="120" as="sourcePoint" />
            <mxPoint x="239" y="120" as="targetPoint" />
          </mxGeometry>
        </mxCell>
        <mxCell id="6VWXFK1JRMtgRxqmZabQ-13" value="Push" style="edgeLabel;resizable=0;html=1;align=center;verticalAlign=middle;" parent="6VWXFK1JRMtgRxqmZabQ-12" connectable="0" vertex="1">
          <mxGeometry relative="1" as="geometry" />
        </mxCell>
        <mxCell id="6VWXFK1JRMtgRxqmZabQ-26" value="" style="shape=image;verticalLabelPosition=bottom;labelBackgroundColor=default;verticalAlign=top;aspect=fixed;imageAspect=0;image=https://cdn.pixabay.com/photo/2020/04/10/13/28/success-5025797_1280.png;" parent="v6-e0fSExj-rIAnDFAJg-91" vertex="1">
          <mxGeometry x="220" y="-20" width="80" height="80" as="geometry" />
        </mxCell>
        <mxCell id="6VWXFK1JRMtgRxqmZabQ-37" style="edgeStyle=orthogonalEdgeStyle;rounded=0;orthogonalLoop=1;jettySize=auto;html=1;entryX=0.543;entryY=0.2;entryDx=0;entryDy=0;entryPerimeter=0;" parent="v6-e0fSExj-rIAnDFAJg-4" source="6VWXFK1JRMtgRxqmZabQ-36" target="6VWXFK1JRMtgRxqmZabQ-4" edge="1">
          <mxGeometry relative="1" as="geometry">
            <Array as="points">
              <mxPoint x="490" y="760" />
              <mxPoint x="222" y="760" />
            </Array>
          </mxGeometry>
        </mxCell>
        <mxCell id="6VWXFK1JRMtgRxqmZabQ-40" style="edgeStyle=orthogonalEdgeStyle;rounded=0;orthogonalLoop=1;jettySize=auto;html=1;exitX=0;exitY=0.5;exitDx=0;exitDy=0;exitPerimeter=0;" parent="v6-e0fSExj-rIAnDFAJg-4" source="6VWXFK1JRMtgRxqmZabQ-38" target="6VWXFK1JRMtgRxqmZabQ-25" edge="1">
          <mxGeometry relative="1" as="geometry" />
        </mxCell>
        <mxCell id="6VWXFK1JRMtgRxqmZabQ-41" value="Dashboard" style="swimlane;html=1;startSize=20;horizontal=0;fillColor=#e1d5e7;strokeColor=#9673a6;" parent="v6-e0fSExj-rIAnDFAJg-4" vertex="1">
          <mxGeometry y="1020" width="630" height="250" as="geometry">
            <mxRectangle y="770" width="630" height="30" as="alternateBounds" />
          </mxGeometry>
        </mxCell>
        <mxCell id="6VWXFK1JRMtgRxqmZabQ-42" value="" style="rounded=1;whiteSpace=wrap;html=1;dashed=1;fillColor=#e1d5e7;strokeColor=#9673a6;" parent="6VWXFK1JRMtgRxqmZabQ-41" vertex="1">
          <mxGeometry x="60" y="50" width="300" height="170" as="geometry" />
        </mxCell>
        <mxCell id="6VWXFK1JRMtgRxqmZabQ-43" value="&lt;b&gt;&lt;u&gt;Openshift Dashboard&lt;/u&gt;&lt;/b&gt;" style="text;html=1;align=center;verticalAlign=middle;resizable=0;points=[];autosize=1;strokeColor=none;fillColor=none;" parent="6VWXFK1JRMtgRxqmZabQ-41" vertex="1">
          <mxGeometry x="135" y="50" width="150" height="30" as="geometry" />
        </mxCell>
        <mxCell id="6VWXFK1JRMtgRxqmZabQ-49" style="edgeStyle=orthogonalEdgeStyle;rounded=0;orthogonalLoop=1;jettySize=auto;html=1;entryX=0.5;entryY=0;entryDx=0;entryDy=0;" parent="v6-e0fSExj-rIAnDFAJg-4" source="6VWXFK1JRMtgRxqmZabQ-5" target="6VWXFK1JRMtgRxqmZabQ-42" edge="1">
          <mxGeometry relative="1" as="geometry" />
        </mxCell>
        <mxCell id="v6-e0fSExj-rIAnDFAJg-16" value="&lt;b&gt;Commits&lt;/b&gt;" style="text;html=1;align=center;verticalAlign=middle;resizable=0;points=[];autosize=1;strokeColor=none;fillColor=none;" parent="1" vertex="1">
          <mxGeometry x="205" y="148" width="70" height="30" as="geometry" />
        </mxCell>
      </root>
    </mxGraphModel>
  </diagram>
</mxfile>
